# xmcd
#
# Track frame offsets:
#	150
#	18496
#	43901
#	60984
#	75288
#	92669
#	113405
#	130937
#	146710
#	163929
#	185023
#
# Disc length: 2727 seconds
#
# Revision: 0
# Processed by: cddbd v1.5.2PL0 Copyright (c) Steve Scherf et al.
# Submitted via: EasyCDDAExtractor 15.3.0.1
#
DISCID=8c0aa50b
DTITLE=Pandora - XXV Años En Vivo - CD 1
DYEAR=2011
DGENRE=Latin
TTITLE0=Alguien Llena Mi Lugar
TTITLE1=Popurri Emmanuel (Tengo Mucho Que Aprender De Ti, Pobre Diablo, Insopo
TTITLE1=rtablemente Bella)
TTITLE2=Maldita Primavera
TTITLE3=Frente A Frente
TTITLE4=Sin El
TTITLE5=Solo El Y Yo
TTITLE6=Cosas Que Nunca Te Dije
TTITLE7=En Carne Viva
TTITLE8=Mientras Tanto (A Dueto Con Gianmarco)
TTITLE9=Tocando Fondo (A Dueto Con Kalimba)
TTITLE10=Entra En Mi Vida (A Dueto Con Noel Schajris)
EXTD=
EXTT0=
EXTT1=
EXTT2=
EXTT3=
EXTT4=
EXTT5=
EXTT6=
EXTT7=
EXTT8=
EXTT9=
EXTT10=
PLAYORDER=
